<svg width="380" height="700" viewBox="0 0 380 700" fill="none" xmlns="http://www.w3.org/2000/svg">
<path d="M0 237H50C87.0031 237 117 266.997 117 304V371H0V237Z" fill="white" fill-opacity="0.3"/>
<g clip-path="url(#clip0_48_54)">
<path d="M0 337C0 320.431 13.4315 307 30 307H350C366.569 307 380 320.431 380 337V643C380 654.046 371.046 663 360 663H20C8.9543 663 0 654.046 0 643V337Z" fill="white"/>
<path d="M27.6 396.1V410H25.32V403.92H18.78V410H16.5V396.1H18.78V402.06H25.32V396.1H27.6ZM40.3216 400.24C40.3216 400.947 40.1549 401.613 39.8216 402.24C39.4882 402.867 38.9549 403.38 38.2216 403.78C37.4882 404.167 36.5482 404.36 35.4016 404.36H32.8816V410H30.6016V396.1H35.4016C36.4682 396.1 37.3682 396.287 38.1016 396.66C38.8482 397.02 39.4016 397.513 39.7616 398.14C40.1349 398.767 40.3216 399.467 40.3216 400.24ZM35.4016 402.5C36.2682 402.5 36.9149 402.307 37.3416 401.92C37.7682 401.52 37.9816 400.96 37.9816 400.24C37.9816 398.72 37.1216 397.96 35.4016 397.96H32.8816V402.5H35.4016Z" fill="#AAAAAA"/>
<path d="M24.88 437.16H19.06L18.06 440H15.68L20.66 426.08H23.3L28.28 440H25.88L24.88 437.16ZM24.24 435.3L21.98 428.84L19.7 435.3H24.24ZM33.1053 430.84V436.94C33.1053 437.353 33.1986 437.653 33.3853 437.84C33.5853 438.013 33.9186 438.1 34.3853 438.1H35.7853V440H33.9853C32.9586 440 32.172 439.76 31.6253 439.28C31.0786 438.8 30.8053 438.02 30.8053 436.94V430.84H29.5053V428.98H30.8053V426.24H33.1053V428.98H35.7853V430.84H33.1053ZM42.2467 434.5L47.3267 440H44.2467L40.1667 435.26V440H37.8867V425.2H40.1667V433.8L44.1667 428.98H47.3267L42.2467 434.5Z" fill="#AAAAAA"/>
<path d="M21.04 456.1C22.52 456.1 23.8133 456.387 24.92 456.96C26.04 457.52 26.9 458.333 27.5 459.4C28.1133 460.453 28.42 461.687 28.42 463.1C28.42 464.513 28.1133 465.74 27.5 466.78C26.9 467.82 26.04 468.62 24.92 469.18C23.8133 469.727 22.52 470 21.04 470H16.5V456.1H21.04ZM21.04 468.14C22.6667 468.14 23.9133 467.7 24.78 466.82C25.6467 465.94 26.08 464.7 26.08 463.1C26.08 461.487 25.6467 460.227 24.78 459.32C23.9133 458.413 22.6667 457.96 21.04 457.96H18.78V468.14H21.04ZM40.7797 464.22C40.7797 464.633 40.753 465.007 40.6997 465.34H32.2797C32.3464 466.22 32.673 466.927 33.2597 467.46C33.8464 467.993 34.5664 468.26 35.4197 468.26C36.6464 468.26 37.513 467.747 38.0197 466.72H40.4797C40.1464 467.733 39.5397 468.567 38.6597 469.22C37.793 469.86 36.713 470.18 35.4197 470.18C34.3664 470.18 33.4197 469.947 32.5797 469.48C31.753 469 31.0997 468.333 30.6197 467.48C30.153 466.613 29.9197 465.613 29.9197 464.48C29.9197 463.347 30.1464 462.353 30.5997 461.5C31.0664 460.633 31.713 459.967 32.5397 459.5C33.3797 459.033 34.3397 458.8 35.4197 458.8C36.4597 458.8 37.3864 459.027 38.1997 459.48C39.013 459.933 39.6464 460.573 40.0997 461.4C40.553 462.213 40.7797 463.153 40.7797 464.22ZM38.3997 463.5C38.3864 462.66 38.0864 461.987 37.4997 461.48C36.913 460.973 36.1864 460.72 35.3197 460.72C34.533 460.72 33.8597 460.973 33.2997 461.48C32.7397 461.973 32.4064 462.647 32.2997 463.5H38.3997ZM47.6434 460.84H45.6034V470H43.3034V460.84H42.0034V458.98H43.3034V458.2C43.3034 456.933 43.6368 456.013 44.3034 455.44C44.9834 454.853 46.0434 454.56 47.4834 454.56V456.46C46.7901 456.46 46.3034 456.593 46.0234 456.86C45.7434 457.113 45.6034 457.56 45.6034 458.2V458.98H47.6434V460.84Z" fill="#AAAAAA"/>
<path d="M21.08 500.14C20.1467 500.14 19.3067 499.98 18.56 499.66C17.8133 499.327 17.2267 498.86 16.8 498.26C16.3733 497.66 16.16 496.96 16.16 496.16H18.6C18.6533 496.76 18.8867 497.253 19.3 497.64C19.7267 498.027 20.32 498.22 21.08 498.22C21.8667 498.22 22.48 498.033 22.92 497.66C23.36 497.273 23.58 496.78 23.58 496.18C23.58 495.713 23.44 495.333 23.16 495.04C22.8933 494.747 22.5533 494.52 22.14 494.36C21.74 494.2 21.18 494.027 20.46 493.84C19.5533 493.6 18.8133 493.36 18.24 493.12C17.68 492.867 17.2 492.48 16.8 491.96C16.4 491.44 16.2 490.747 16.2 489.88C16.2 489.08 16.4 488.38 16.8 487.78C17.2 487.18 17.76 486.72 18.48 486.4C19.2 486.08 20.0333 485.92 20.98 485.92C22.3267 485.92 23.4267 486.26 24.28 486.94C25.1467 487.607 25.6267 488.527 25.72 489.7H23.2C23.16 489.193 22.92 488.76 22.48 488.4C22.04 488.04 21.46 487.86 20.74 487.86C20.0867 487.86 19.5533 488.027 19.14 488.36C18.7267 488.693 18.52 489.173 18.52 489.8C18.52 490.227 18.6467 490.58 18.9 490.86C19.1667 491.127 19.5 491.34 19.9 491.5C20.3 491.66 20.8467 491.833 21.54 492.02C22.46 492.273 23.2067 492.527 23.78 492.78C24.3667 493.033 24.86 493.427 25.26 493.96C25.6733 494.48 25.88 495.18 25.88 496.06C25.88 496.767 25.6867 497.433 25.3 498.06C24.9267 498.687 24.3733 499.193 23.64 499.58C22.92 499.953 22.0667 500.14 21.08 500.14ZM36.9503 497.16H31.1303L30.1303 500H27.7503L32.7303 486.08H35.3703L40.3503 500H37.9503L36.9503 497.16ZM36.3103 495.3L34.0503 488.84L31.7703 495.3H36.3103ZM45.1756 490.84V496.94C45.1756 497.353 45.269 497.653 45.4556 497.84C45.6556 498.013 45.989 498.1 46.4556 498.1H47.8556V500H46.0556C45.029 500 44.2423 499.76 43.6956 499.28C43.149 498.8 42.8756 498.02 42.8756 496.94V490.84H41.5756V488.98H42.8756V486.24H45.1756V488.98H47.8556V490.84H45.1756ZM54.317 494.5L59.397 500H56.317L52.237 495.26V500H49.957V485.2H52.237V493.8L56.237 488.98H59.397L54.317 494.5Z" fill="#AAAAAA"/>
<path d="M21.08 530.14C20.1467 530.14 19.3067 529.98 18.56 529.66C17.8133 529.327 17.2267 528.86 16.8 528.26C16.3733 527.66 16.16 526.96 16.16 526.16H18.6C18.6533 526.76 18.8867 527.253 19.3 527.64C19.7267 528.027 20.32 528.22 21.08 528.22C21.8667 528.22 22.48 528.033 22.92 527.66C23.36 527.273 23.58 526.78 23.58 526.18C23.58 525.713 23.44 525.333 23.16 525.04C22.8933 524.747 22.5533 524.52 22.14 524.36C21.74 524.2 21.18 524.027 20.46 523.84C19.5533 523.6 18.8133 523.36 18.24 523.12C17.68 522.867 17.2 522.48 16.8 521.96C16.4 521.44 16.2 520.747 16.2 519.88C16.2 519.08 16.4 518.38 16.8 517.78C17.2 517.18 17.76 516.72 18.48 516.4C19.2 516.08 20.0333 515.92 20.98 515.92C22.3267 515.92 23.4267 516.26 24.28 516.94C25.1467 517.607 25.6267 518.527 25.72 519.7H23.2C23.16 519.193 22.92 518.76 22.48 518.4C22.04 518.04 21.46 517.86 20.74 517.86C20.0867 517.86 19.5533 518.027 19.14 518.36C18.7267 518.693 18.52 519.173 18.52 519.8C18.52 520.227 18.6467 520.58 18.9 520.86C19.1667 521.127 19.5 521.34 19.9 521.5C20.3 521.66 20.8467 521.833 21.54 522.02C22.46 522.273 23.2067 522.527 23.78 522.78C24.3667 523.033 24.86 523.427 25.26 523.96C25.6733 524.48 25.88 525.18 25.88 526.06C25.88 526.767 25.6867 527.433 25.3 528.06C24.9267 528.687 24.3733 529.193 23.64 529.58C22.92 529.953 22.0667 530.14 21.08 530.14ZM33.1103 516.1C34.5903 516.1 35.8836 516.387 36.9903 516.96C38.1103 517.52 38.9703 518.333 39.5703 519.4C40.1836 520.453 40.4903 521.687 40.4903 523.1C40.4903 524.513 40.1836 525.74 39.5703 526.78C38.9703 527.82 38.1103 528.62 36.9903 529.18C35.8836 529.727 34.5903 530 33.1103 530H28.5703V516.1H33.1103ZM33.1103 528.14C34.737 528.14 35.9836 527.7 36.8503 526.82C37.717 525.94 38.1503 524.7 38.1503 523.1C38.1503 521.487 37.717 520.227 36.8503 519.32C35.9836 518.413 34.737 517.96 33.1103 517.96H30.8503V528.14H33.1103ZM52.85 524.22C52.85 524.633 52.8233 525.007 52.77 525.34H44.35C44.4167 526.22 44.7433 526.927 45.33 527.46C45.9167 527.993 46.6367 528.26 47.49 528.26C48.7167 528.26 49.5833 527.747 50.09 526.72H52.55C52.2167 527.733 51.61 528.567 50.73 529.22C49.8633 529.86 48.7833 530.18 47.49 530.18C46.4367 530.18 45.49 529.947 44.65 529.48C43.8233 529 43.17 528.333 42.69 527.48C42.2233 526.613 41.99 525.613 41.99 524.48C41.99 523.347 42.2167 522.353 42.67 521.5C43.1367 520.633 43.7833 519.967 44.61 519.5C45.45 519.033 46.41 518.8 47.49 518.8C48.53 518.8 49.4567 519.027 50.27 519.48C51.0833 519.933 51.7167 520.573 52.17 521.4C52.6233 522.213 52.85 523.153 52.85 524.22ZM50.47 523.5C50.4567 522.66 50.1567 521.987 49.57 521.48C48.9833 520.973 48.2567 520.72 47.39 520.72C46.6033 520.72 45.93 520.973 45.37 521.48C44.81 521.973 44.4767 522.647 44.37 523.5H50.47ZM59.7138 520.84H57.6738V530H55.3738V520.84H54.0738V518.98H55.3738V518.2C55.3738 516.933 55.7071 516.013 56.3738 515.44C57.0538 514.853 58.1138 514.56 59.5538 514.56V516.46C58.8604 516.46 58.3738 516.593 58.0938 516.86C57.8138 517.113 57.6738 517.56 57.6738 518.2V518.98H59.7138V520.84Z" fill="#AAAAAA"/>
<path d="M21.08 560.14C20.1467 560.14 19.3067 559.98 18.56 559.66C17.8133 559.327 17.2267 558.86 16.8 558.26C16.3733 557.66 16.16 556.96 16.16 556.16H18.6C18.6533 556.76 18.8867 557.253 19.3 557.64C19.7267 558.027 20.32 558.22 21.08 558.22C21.8667 558.22 22.48 558.033 22.92 557.66C23.36 557.273 23.58 556.78 23.58 556.18C23.58 555.713 23.44 555.333 23.16 555.04C22.8933 554.747 22.5533 554.52 22.14 554.36C21.74 554.2 21.18 554.027 20.46 553.84C19.5533 553.6 18.8133 553.36 18.24 553.12C17.68 552.867 17.2 552.48 16.8 551.96C16.4 551.44 16.2 550.747 16.2 549.88C16.2 549.08 16.4 548.38 16.8 547.78C17.2 547.18 17.76 546.72 18.48 546.4C19.2 546.08 20.0333 545.92 20.98 545.92C22.3267 545.92 23.4267 546.26 24.28 546.94C25.1467 547.607 25.6267 548.527 25.72 549.7H23.2C23.16 549.193 22.92 548.76 22.48 548.4C22.04 548.04 21.46 547.86 20.74 547.86C20.0867 547.86 19.5533 548.027 19.14 548.36C18.7267 548.693 18.52 549.173 18.52 549.8C18.52 550.227 18.6467 550.58 18.9 550.86C19.1667 551.127 19.5 551.34 19.9 551.5C20.3 551.66 20.8467 551.833 21.54 552.02C22.46 552.273 23.2067 552.527 23.78 552.78C24.3667 553.033 24.86 553.427 25.26 553.96C25.6733 554.48 25.88 555.18 25.88 556.06C25.88 556.767 25.6867 557.433 25.3 558.06C24.9267 558.687 24.3733 559.193 23.64 559.58C22.92 559.953 22.0667 560.14 21.08 560.14ZM30.8503 550.6C31.237 550.093 31.7636 549.667 32.4303 549.32C33.097 548.973 33.8503 548.8 34.6903 548.8C35.6503 548.8 36.5236 549.04 37.3103 549.52C38.1103 549.987 38.737 550.647 39.1903 551.5C39.6436 552.353 39.8703 553.333 39.8703 554.44C39.8703 555.547 39.6436 556.54 39.1903 557.42C38.737 558.287 38.1103 558.967 37.3103 559.46C36.5236 559.94 35.6503 560.18 34.6903 560.18C33.8503 560.18 33.1036 560.013 32.4503 559.68C31.797 559.333 31.2636 558.907 30.8503 558.4V565.24H28.5703V548.98H30.8503V550.6ZM37.5503 554.44C37.5503 553.68 37.3903 553.027 37.0703 552.48C36.7636 551.92 36.3503 551.5 35.8303 551.22C35.3236 550.927 34.777 550.78 34.1903 550.78C33.617 550.78 33.0703 550.927 32.5503 551.22C32.0436 551.513 31.6303 551.94 31.3103 552.5C31.0036 553.06 30.8503 553.72 30.8503 554.48C30.8503 555.24 31.0036 555.907 31.3103 556.48C31.6303 557.04 32.0436 557.467 32.5503 557.76C33.0703 558.053 33.617 558.2 34.1903 558.2C34.777 558.2 35.3236 558.053 35.8303 557.76C36.3503 557.453 36.7636 557.013 37.0703 556.44C37.3903 555.867 37.5503 555.2 37.5503 554.44Z" fill="#AAAAAA"/>
<path d="M25.48 576.1V577.96H21.78V590H19.5V577.96H15.78V576.1H25.48ZM32.5691 590.18C31.5291 590.18 30.5891 589.947 29.7491 589.48C28.9091 589 28.2491 588.333 27.7691 587.48C27.2891 586.613 27.0491 585.613 27.0491 584.48C27.0491 583.36 27.2957 582.367 27.7891 581.5C28.2824 580.633 28.9557 579.967 29.8091 579.5C30.6624 579.033 31.6157 578.8 32.6691 578.8C33.7224 578.8 34.6757 579.033 35.5291 579.5C36.3824 579.967 37.0557 580.633 37.5491 581.5C38.0424 582.367 38.2891 583.36 38.2891 584.48C38.2891 585.6 38.0357 586.593 37.5291 587.46C37.0224 588.327 36.3291 589 35.4491 589.48C34.5824 589.947 33.6224 590.18 32.5691 590.18ZM32.5691 588.2C33.1557 588.2 33.7024 588.06 34.2091 587.78C34.7291 587.5 35.1491 587.08 35.4691 586.52C35.7891 585.96 35.9491 585.28 35.9491 584.48C35.9491 583.68 35.7957 583.007 35.4891 582.46C35.1824 581.9 34.7757 581.48 34.2691 581.2C33.7624 580.92 33.2157 580.78 32.6291 580.78C32.0424 580.78 31.4957 580.92 30.9891 581.2C30.4957 581.48 30.1024 581.9 29.8091 582.46C29.5157 583.007 29.3691 583.68 29.3691 584.48C29.3691 585.667 29.6691 586.587 30.2691 587.24C30.8824 587.88 31.6491 588.2 32.5691 588.2ZM43.203 580.84V586.94C43.203 587.353 43.2963 587.653 43.483 587.84C43.683 588.013 44.0163 588.1 44.483 588.1H45.883V590H44.083C43.0563 590 42.2696 589.76 41.723 589.28C41.1763 588.8 40.903 588.02 40.903 586.94V580.84H39.603V578.98H40.903V576.24H43.203V578.98H45.883V580.84H43.203ZM47.2244 584.44C47.2244 583.333 47.451 582.353 47.9044 581.5C48.371 580.647 48.9977 579.987 49.7844 579.52C50.5844 579.04 51.4644 578.8 52.4244 578.8C53.291 578.8 54.0444 578.973 54.6844 579.32C55.3377 579.653 55.8577 580.073 56.2444 580.58V578.98H58.5444V590H56.2444V588.36C55.8577 588.88 55.331 589.313 54.6644 589.66C53.9977 590.007 53.2377 590.18 52.3844 590.18C51.4377 590.18 50.571 589.94 49.7844 589.46C48.9977 588.967 48.371 588.287 47.9044 587.42C47.451 586.54 47.2244 585.547 47.2244 584.44ZM56.2444 584.48C56.2444 583.72 56.0844 583.06 55.7644 582.5C55.4577 581.94 55.051 581.513 54.5444 581.22C54.0377 580.927 53.491 580.78 52.9044 580.78C52.3177 580.78 51.771 580.927 51.2644 581.22C50.7577 581.5 50.3444 581.92 50.0244 582.48C49.7177 583.027 49.5644 583.68 49.5644 584.44C49.5644 585.2 49.7177 585.867 50.0244 586.44C50.3444 587.013 50.7577 587.453 51.2644 587.76C51.7844 588.053 52.331 588.2 52.9044 588.2C53.491 588.2 54.0377 588.053 54.5444 587.76C55.051 587.467 55.4577 587.04 55.7644 586.48C56.0844 585.907 56.2444 585.24 56.2444 584.48ZM63.8191 575.2V590H61.5391V575.2H63.8191Z" fill="#AAAAAA"/>
<rect x="107.413" y="428" width="256.587" height="12" rx="6" fill="#DDDDDD"/>
<rect x="107.413" y="458" width="256.587" height="12" rx="6" fill="#DDDDDD"/>
<rect x="107.413" y="488" width="256.587" height="12" rx="6" fill="#DDDDDD"/>
<rect x="107.413" y="518" width="256.587" height="12" rx="6" fill="#DDDDDD"/>
<rect x="107.413" y="548" width="256.587" height="12" rx="6" fill="#DDDDDD"/>
<rect x="107.413" y="578" width="256.587" height="12" rx="6" fill="#DDDDDD"/>
<rect x="107.413" y="398" width="256.587" height="12" rx="6" fill="#DDDDDD"/>
<path d="M25.2 364.14C24.2267 364.14 23.3467 363.973 22.56 363.64C21.7867 363.307 21.1733 362.827 20.72 362.2C20.2667 361.573 20.0333 360.833 20.02 359.98H23.02C23.06 360.553 23.26 361.007 23.62 361.34C23.9933 361.673 24.5 361.84 25.14 361.84C25.7933 361.84 26.3067 361.687 26.68 361.38C27.0533 361.06 27.24 360.647 27.24 360.14C27.24 359.727 27.1133 359.387 26.86 359.12C26.6067 358.853 26.2867 358.647 25.9 358.5C25.5267 358.34 25.0067 358.167 24.34 357.98C23.4333 357.713 22.6933 357.453 22.12 357.2C21.56 356.933 21.0733 356.54 20.66 356.02C20.26 355.487 20.06 354.78 20.06 353.9C20.06 353.073 20.2667 352.353 20.68 351.74C21.0933 351.127 21.6733 350.66 22.42 350.34C23.1667 350.007 24.02 349.84 24.98 349.84C26.42 349.84 27.5867 350.193 28.48 350.9C29.3867 351.593 29.8867 352.567 29.98 353.82H26.9C26.8733 353.34 26.6667 352.947 26.28 352.64C25.9067 352.32 25.4067 352.16 24.78 352.16C24.2333 352.16 23.7933 352.3 23.46 352.58C23.14 352.86 22.98 353.267 22.98 353.8C22.98 354.173 23.1 354.487 23.34 354.74C23.5933 354.98 23.9 355.18 24.26 355.34C24.6333 355.487 25.1533 355.66 25.82 355.86C26.7267 356.127 27.4667 356.393 28.04 356.66C28.6133 356.927 29.1067 357.327 29.52 357.86C29.9333 358.393 30.14 359.093 30.14 359.96C30.14 360.707 29.9467 361.4 29.56 362.04C29.1733 362.68 28.6067 363.193 27.86 363.58C27.1133 363.953 26.2267 364.14 25.2 364.14ZM35.8275 355.22V360.58C35.8275 360.953 35.9142 361.227 36.0875 361.4C36.2742 361.56 36.5808 361.64 37.0075 361.64H38.3075V364H36.5475C34.1875 364 33.0075 362.853 33.0075 360.56V355.22H31.6875V352.92H33.0075V350.18H35.8275V352.92H38.3075V355.22H35.8275ZM39.6014 358.42C39.6014 357.3 39.8214 356.307 40.2614 355.44C40.7147 354.573 41.3214 353.907 42.0814 353.44C42.8547 352.973 43.7147 352.74 44.6614 352.74C45.4881 352.74 46.2081 352.907 46.8214 353.24C47.4481 353.573 47.9481 353.993 48.3214 354.5V352.92H51.1414V364H48.3214V362.38C47.9614 362.9 47.4614 363.333 46.8214 363.68C46.1947 364.013 45.4681 364.18 44.6414 364.18C43.7081 364.18 42.8547 363.94 42.0814 363.46C41.3214 362.98 40.7147 362.307 40.2614 361.44C39.8214 360.56 39.6014 359.553 39.6014 358.42ZM48.3214 358.46C48.3214 357.78 48.1881 357.2 47.9214 356.72C47.6547 356.227 47.2947 355.853 46.8414 355.6C46.3881 355.333 45.9014 355.2 45.3814 355.2C44.8614 355.2 44.3814 355.327 43.9414 355.58C43.5014 355.833 43.1414 356.207 42.8614 356.7C42.5947 357.18 42.4614 357.753 42.4614 358.42C42.4614 359.087 42.5947 359.673 42.8614 360.18C43.1414 360.673 43.5014 361.053 43.9414 361.32C44.3947 361.587 44.8747 361.72 45.3814 361.72C45.9014 361.72 46.3881 361.593 46.8414 361.34C47.2947 361.073 47.6547 360.7 47.9214 360.22C48.1881 359.727 48.3214 359.14 48.3214 358.46ZM57.1361 355.22V360.58C57.1361 360.953 57.2228 361.227 57.3961 361.4C57.5828 361.56 57.8894 361.64 58.3161 361.64H59.6161V364H57.8561C55.4961 364 54.3161 362.853 54.3161 360.56V355.22H52.9961V352.92H54.3161V350.18H57.1361V352.92H59.6161V355.22H57.1361ZM65.87 364.18C64.9633 364.18 64.15 364.02 63.43 363.7C62.71 363.367 62.1367 362.92 61.71 362.36C61.2967 361.8 61.07 361.18 61.03 360.5H63.85C63.9033 360.927 64.11 361.28 64.47 361.56C64.8433 361.84 65.3033 361.98 65.85 361.98C66.3833 361.98 66.7967 361.873 67.09 361.66C67.3967 361.447 67.55 361.173 67.55 360.84C67.55 360.48 67.3633 360.213 66.99 360.04C66.63 359.853 66.05 359.653 65.25 359.44C64.4233 359.24 63.7433 359.033 63.21 358.82C62.69 358.607 62.2367 358.28 61.85 357.84C61.4767 357.4 61.29 356.807 61.29 356.06C61.29 355.447 61.4633 354.887 61.81 354.38C62.17 353.873 62.6767 353.473 63.33 353.18C63.9967 352.887 64.7767 352.74 65.67 352.74C66.99 352.74 68.0433 353.073 68.83 353.74C69.6167 354.393 70.05 355.28 70.13 356.4H67.45C67.41 355.96 67.2233 355.613 66.89 355.36C66.57 355.093 66.1367 354.96 65.59 354.96C65.0833 354.96 64.69 355.053 64.41 355.24C64.1433 355.427 64.01 355.687 64.01 356.02C64.01 356.393 64.1967 356.68 64.57 356.88C64.9433 357.067 65.5233 357.26 66.31 357.46C67.11 357.66 67.77 357.867 68.29 358.08C68.81 358.293 69.2567 358.627 69.63 359.08C70.0167 359.52 70.2167 360.107 70.23 360.84C70.23 361.48 70.05 362.053 69.69 362.56C69.3433 363.067 68.8367 363.467 68.17 363.76C67.5167 364.04 66.75 364.18 65.87 364.18Z" fill="black"/>
<path d="M14 372.5H76" stroke="black"/>
<path d="M338.5 574.84L336.78 574.08C336.74 573.853 336.713 573.633 336.7 573.42C336.687 573.207 336.68 573 336.68 572.8C336.68 572.013 336.82 571.333 337.1 570.76C337.393 570.173 337.84 569.64 338.44 569.16L339.82 568.06C340.233 567.727 340.553 567.413 340.78 567.12C341.02 566.813 341.187 566.473 341.28 566.1C341.373 565.727 341.42 565.267 341.42 564.72C341.42 564.173 341.193 563.9 340.74 563.9C340.047 563.9 339.52 564.107 339.16 564.52C338.813 564.92 338.64 565.62 338.64 566.62L338.34 566.74L336.7 565.84C336.7 564.573 337 563.627 337.6 563C338.2 562.373 338.94 562.06 339.82 562.06C340.153 562.06 340.513 562.18 340.9 562.42C341.3 562.647 341.673 562.947 342.02 563.32C342.38 563.68 342.673 564.06 342.9 564.46C343.127 564.847 343.24 565.2 343.24 565.52C343.24 566.053 343.2 566.547 343.12 567C343.04 567.44 342.867 567.86 342.6 568.26C342.347 568.66 341.96 569.067 341.44 569.48L340.02 570.62C339.793 570.793 339.58 570.98 339.38 571.18C339.18 571.38 339.02 571.593 338.9 571.82C339.18 572.22 339.487 572.487 339.82 572.62C340.167 572.753 340.52 572.82 340.88 572.82C341.307 572.82 341.673 572.72 341.98 572.52C342.287 572.307 342.527 572.08 342.7 571.84H343.02L344.1 573.86C343.887 574.167 343.593 574.413 343.22 574.6C342.86 574.787 342.433 574.88 341.94 574.88C340.607 574.88 339.513 574.227 338.66 572.92C338.633 573 338.62 573.153 338.62 573.38C338.62 573.553 338.627 573.74 338.64 573.94C338.667 574.14 338.707 574.353 338.76 574.58L338.5 574.84ZM348.494 574.88C347.387 574.88 346.514 574.507 345.874 573.76C345.234 573 344.761 571.993 344.454 570.74L345.134 570.52C345.481 571.293 345.841 571.827 346.214 572.12C346.601 572.4 347.141 572.54 347.834 572.54C348.567 572.54 349.114 572.293 349.474 571.8C349.834 571.293 350.014 570.66 350.014 569.9C350.014 569.553 349.961 569.287 349.854 569.1C349.747 568.913 349.621 568.82 349.474 568.82C349.274 568.82 349.041 568.867 348.774 568.96C348.521 569.053 348.267 569.167 348.014 569.3C347.761 569.42 347.541 569.527 347.354 569.62C347.181 569.713 347.074 569.76 347.034 569.76C346.967 569.76 346.827 569.693 346.614 569.56C346.401 569.427 346.174 569.273 345.934 569.1C345.694 568.913 345.481 568.74 345.294 568.58C345.121 568.407 345.034 568.287 345.034 568.22C345.034 567.66 345.041 567.1 345.054 566.54C345.067 565.967 345.087 565.453 345.114 565C345.154 564.533 345.207 564.173 345.274 563.92L344.354 562.56L344.494 562.22H350.614L351.614 563.64L350.614 564.5H350.234C350.087 564.273 349.907 564.113 349.694 564.02C349.481 563.927 349.121 563.88 348.614 563.88H347.294C347.147 564.16 347.047 564.647 346.994 565.34C346.954 566.02 346.934 566.753 346.934 567.54C347.174 567.42 347.447 567.3 347.754 567.18C348.074 567.047 348.374 566.933 348.654 566.84C348.934 566.747 349.141 566.7 349.274 566.7C349.554 566.7 349.867 566.893 350.214 567.28C350.574 567.653 350.881 568.18 351.134 568.86C351.387 569.527 351.514 570.313 351.514 571.22C351.514 572.393 351.267 573.3 350.774 573.94C350.281 574.567 349.521 574.88 348.494 574.88ZM356.756 574.88C355.649 574.88 354.776 574.507 354.136 573.76C353.496 573 353.022 571.993 352.716 570.74L353.396 570.52C353.742 571.293 354.102 571.827 354.476 572.12C354.862 572.4 355.402 572.54 356.096 572.54C356.829 572.54 357.376 572.293 357.736 571.8C358.096 571.293 358.276 570.66 358.276 569.9C358.276 569.553 358.222 569.287 358.116 569.1C358.009 568.913 357.882 568.82 357.736 568.82C357.536 568.82 357.302 568.867 357.036 568.96C356.782 569.053 356.529 569.167 356.276 569.3C356.022 569.42 355.802 569.527 355.616 569.62C355.442 569.713 355.336 569.76 355.296 569.76C355.229 569.76 355.089 569.693 354.876 569.56C354.662 569.427 354.436 569.273 354.196 569.1C353.956 568.913 353.742 568.74 353.556 568.58C353.382 568.407 353.296 568.287 353.296 568.22C353.296 567.66 353.302 567.1 353.316 566.54C353.329 565.967 353.349 565.453 353.376 565C353.416 564.533 353.469 564.173 353.536 563.92L352.616 562.56L352.756 562.22H358.876L359.876 563.64L358.876 564.5H358.496C358.349 564.273 358.169 564.113 357.956 564.02C357.742 563.927 357.382 563.88 356.876 563.88H355.556C355.409 564.16 355.309 564.647 355.256 565.34C355.216 566.02 355.196 566.753 355.196 567.54C355.436 567.42 355.709 567.3 356.016 567.18C356.336 567.047 356.636 566.933 356.916 566.84C357.196 566.747 357.402 566.7 357.536 566.7C357.816 566.7 358.129 566.893 358.476 567.28C358.836 567.653 359.142 568.18 359.396 568.86C359.649 569.527 359.776 570.313 359.776 571.22C359.776 572.393 359.529 573.3 359.036 573.94C358.542 574.567 357.782 574.88 356.756 574.88Z" fill="#090808"/>
<path d="M338.5 543.84L336.78 543.08C336.74 542.853 336.713 542.633 336.7 542.42C336.687 542.207 336.68 542 336.68 541.8C336.68 541.013 336.82 540.333 337.1 539.76C337.393 539.173 337.84 538.64 338.44 538.16L339.82 537.06C340.233 536.727 340.553 536.413 340.78 536.12C341.02 535.813 341.187 535.473 341.28 535.1C341.373 534.727 341.42 534.267 341.42 533.72C341.42 533.173 341.193 532.9 340.74 532.9C340.047 532.9 339.52 533.107 339.16 533.52C338.813 533.92 338.64 534.62 338.64 535.62L338.34 535.74L336.7 534.84C336.7 533.573 337 532.627 337.6 532C338.2 531.373 338.94 531.06 339.82 531.06C340.153 531.06 340.513 531.18 340.9 531.42C341.3 531.647 341.673 531.947 342.02 532.32C342.38 532.68 342.673 533.06 342.9 533.46C343.127 533.847 343.24 534.2 343.24 534.52C343.24 535.053 343.2 535.547 343.12 536C343.04 536.44 342.867 536.86 342.6 537.26C342.347 537.66 341.96 538.067 341.44 538.48L340.02 539.62C339.793 539.793 339.58 539.98 339.38 540.18C339.18 540.38 339.02 540.593 338.9 540.82C339.18 541.22 339.487 541.487 339.82 541.62C340.167 541.753 340.52 541.82 340.88 541.82C341.307 541.82 341.673 541.72 341.98 541.52C342.287 541.307 342.527 541.08 342.7 540.84H343.02L344.1 542.86C343.887 543.167 343.593 543.413 343.22 543.6C342.86 543.787 342.433 543.88 341.94 543.88C340.607 543.88 339.513 543.227 338.66 541.92C338.633 542 338.62 542.153 338.62 542.38C338.62 542.553 338.627 542.74 338.64 542.94C338.667 543.14 338.707 543.353 338.76 543.58L338.5 543.84ZM348.494 543.88C347.387 543.88 346.514 543.507 345.874 542.76C345.234 542 344.761 540.993 344.454 539.74L345.134 539.52C345.481 540.293 345.841 540.827 346.214 541.12C346.601 541.4 347.141 541.54 347.834 541.54C348.567 541.54 349.114 541.293 349.474 540.8C349.834 540.293 350.014 539.66 350.014 538.9C350.014 538.553 349.961 538.287 349.854 538.1C349.747 537.913 349.621 537.82 349.474 537.82C349.274 537.82 349.041 537.867 348.774 537.96C348.521 538.053 348.267 538.167 348.014 538.3C347.761 538.42 347.541 538.527 347.354 538.62C347.181 538.713 347.074 538.76 347.034 538.76C346.967 538.76 346.827 538.693 346.614 538.56C346.401 538.427 346.174 538.273 345.934 538.1C345.694 537.913 345.481 537.74 345.294 537.58C345.121 537.407 345.034 537.287 345.034 537.22C345.034 536.66 345.041 536.1 345.054 535.54C345.067 534.967 345.087 534.453 345.114 534C345.154 533.533 345.207 533.173 345.274 532.92L344.354 531.56L344.494 531.22H350.614L351.614 532.64L350.614 533.5H350.234C350.087 533.273 349.907 533.113 349.694 533.02C349.481 532.927 349.121 532.88 348.614 532.88H347.294C347.147 533.16 347.047 533.647 346.994 534.34C346.954 535.02 346.934 535.753 346.934 536.54C347.174 536.42 347.447 536.3 347.754 536.18C348.074 536.047 348.374 535.933 348.654 535.84C348.934 535.747 349.141 535.7 349.274 535.7C349.554 535.7 349.867 535.893 350.214 536.28C350.574 536.653 350.881 537.18 351.134 537.86C351.387 538.527 351.514 539.313 351.514 540.22C351.514 541.393 351.267 542.3 350.774 542.94C350.281 543.567 349.521 543.88 348.494 543.88ZM356.756 543.88C355.649 543.88 354.776 543.507 354.136 542.76C353.496 542 353.022 540.993 352.716 539.74L353.396 539.52C353.742 540.293 354.102 540.827 354.476 541.12C354.862 541.4 355.402 541.54 356.096 541.54C356.829 541.54 357.376 541.293 357.736 540.8C358.096 540.293 358.276 539.66 358.276 538.9C358.276 538.553 358.222 538.287 358.116 538.1C358.009 537.913 357.882 537.82 357.736 537.82C357.536 537.82 357.302 537.867 357.036 537.96C356.782 538.053 356.529 538.167 356.276 538.3C356.022 538.42 355.802 538.527 355.616 538.62C355.442 538.713 355.336 538.76 355.296 538.76C355.229 538.76 355.089 538.693 354.876 538.56C354.662 538.427 354.436 538.273 354.196 538.1C353.956 537.913 353.742 537.74 353.556 537.58C353.382 537.407 353.296 537.287 353.296 537.22C353.296 536.66 353.302 536.1 353.316 535.54C353.329 534.967 353.349 534.453 353.376 534C353.416 533.533 353.469 533.173 353.536 532.92L352.616 531.56L352.756 531.22H358.876L359.876 532.64L358.876 533.5H358.496C358.349 533.273 358.169 533.113 357.956 533.02C357.742 532.927 357.382 532.88 356.876 532.88H355.556C355.409 533.16 355.309 533.647 355.256 534.34C355.216 535.02 355.196 535.753 355.196 536.54C355.436 536.42 355.709 536.3 356.016 536.18C356.336 536.047 356.636 535.933 356.916 535.84C357.196 535.747 357.402 535.7 357.536 535.7C357.816 535.7 358.129 535.893 358.476 536.28C358.836 536.653 359.142 537.18 359.396 537.86C359.649 538.527 359.776 539.313 359.776 540.22C359.776 541.393 359.529 542.3 359.036 542.94C358.542 543.567 357.782 543.88 356.756 543.88Z" fill="#090808"/>
<path d="M338.5 514.84L336.78 514.08C336.74 513.853 336.713 513.633 336.7 513.42C336.687 513.207 336.68 513 336.68 512.8C336.68 512.013 336.82 511.333 337.1 510.76C337.393 510.173 337.84 509.64 338.44 509.16L339.82 508.06C340.233 507.727 340.553 507.413 340.78 507.12C341.02 506.813 341.187 506.473 341.28 506.1C341.373 505.727 341.42 505.267 341.42 504.72C341.42 504.173 341.193 503.9 340.74 503.9C340.047 503.9 339.52 504.107 339.16 504.52C338.813 504.92 338.64 505.62 338.64 506.62L338.34 506.74L336.7 505.84C336.7 504.573 337 503.627 337.6 503C338.2 502.373 338.94 502.06 339.82 502.06C340.153 502.06 340.513 502.18 340.9 502.42C341.3 502.647 341.673 502.947 342.02 503.32C342.38 503.68 342.673 504.06 342.9 504.46C343.127 504.847 343.24 505.2 343.24 505.52C343.24 506.053 343.2 506.547 343.12 507C343.04 507.44 342.867 507.86 342.6 508.26C342.347 508.66 341.96 509.067 341.44 509.48L340.02 510.62C339.793 510.793 339.58 510.98 339.38 511.18C339.18 511.38 339.02 511.593 338.9 511.82C339.18 512.22 339.487 512.487 339.82 512.62C340.167 512.753 340.52 512.82 340.88 512.82C341.307 512.82 341.673 512.72 341.98 512.52C342.287 512.307 342.527 512.08 342.7 511.84H343.02L344.1 513.86C343.887 514.167 343.593 514.413 343.22 514.6C342.86 514.787 342.433 514.88 341.94 514.88C340.607 514.88 339.513 514.227 338.66 512.92C338.633 513 338.62 513.153 338.62 513.38C338.62 513.553 338.627 513.74 338.64 513.94C338.667 514.14 338.707 514.353 338.76 514.58L338.5 514.84ZM348.494 514.88C347.387 514.88 346.514 514.507 345.874 513.76C345.234 513 344.761 511.993 344.454 510.74L345.134 510.52C345.481 511.293 345.841 511.827 346.214 512.12C346.601 512.4 347.141 512.54 347.834 512.54C348.567 512.54 349.114 512.293 349.474 511.8C349.834 511.293 350.014 510.66 350.014 509.9C350.014 509.553 349.961 509.287 349.854 509.1C349.747 508.913 349.621 508.82 349.474 508.82C349.274 508.82 349.041 508.867 348.774 508.96C348.521 509.053 348.267 509.167 348.014 509.3C347.761 509.42 347.541 509.527 347.354 509.62C347.181 509.713 347.074 509.76 347.034 509.76C346.967 509.76 346.827 509.693 346.614 509.56C346.401 509.427 346.174 509.273 345.934 509.1C345.694 508.913 345.481 508.74 345.294 508.58C345.121 508.407 345.034 508.287 345.034 508.22C345.034 507.66 345.041 507.1 345.054 506.54C345.067 505.967 345.087 505.453 345.114 505C345.154 504.533 345.207 504.173 345.274 503.92L344.354 502.56L344.494 502.22H350.614L351.614 503.64L350.614 504.5H350.234C350.087 504.273 349.907 504.113 349.694 504.02C349.481 503.927 349.121 503.88 348.614 503.88H347.294C347.147 504.16 347.047 504.647 346.994 505.34C346.954 506.02 346.934 506.753 346.934 507.54C347.174 507.42 347.447 507.3 347.754 507.18C348.074 507.047 348.374 506.933 348.654 506.84C348.934 506.747 349.141 506.7 349.274 506.7C349.554 506.7 349.867 506.893 350.214 507.28C350.574 507.653 350.881 508.18 351.134 508.86C351.387 509.527 351.514 510.313 351.514 511.22C351.514 512.393 351.267 513.3 350.774 513.94C350.281 514.567 349.521 514.88 348.494 514.88ZM356.756 514.88C355.649 514.88 354.776 514.507 354.136 513.76C353.496 513 353.022 511.993 352.716 510.74L353.396 510.52C353.742 511.293 354.102 511.827 354.476 512.12C354.862 512.4 355.402 512.54 356.096 512.54C356.829 512.54 357.376 512.293 357.736 511.8C358.096 511.293 358.276 510.66 358.276 509.9C358.276 509.553 358.222 509.287 358.116 509.1C358.009 508.913 357.882 508.82 357.736 508.82C357.536 508.82 357.302 508.867 357.036 508.96C356.782 509.053 356.529 509.167 356.276 509.3C356.022 509.42 355.802 509.527 355.616 509.62C355.442 509.713 355.336 509.76 355.296 509.76C355.229 509.76 355.089 509.693 354.876 509.56C354.662 509.427 354.436 509.273 354.196 509.1C353.956 508.913 353.742 508.74 353.556 508.58C353.382 508.407 353.296 508.287 353.296 508.22C353.296 507.66 353.302 507.1 353.316 506.54C353.329 505.967 353.349 505.453 353.376 505C353.416 504.533 353.469 504.173 353.536 503.92L352.616 502.56L352.756 502.22H358.876L359.876 503.64L358.876 504.5H358.496C358.349 504.273 358.169 504.113 357.956 504.02C357.742 503.927 357.382 503.88 356.876 503.88H355.556C355.409 504.16 355.309 504.647 355.256 505.34C355.216 506.02 355.196 506.753 355.196 507.54C355.436 507.42 355.709 507.3 356.016 507.18C356.336 507.047 356.636 506.933 356.916 506.84C357.196 506.747 357.402 506.7 357.536 506.7C357.816 506.7 358.129 506.893 358.476 507.28C358.836 507.653 359.142 508.18 359.396 508.86C359.649 509.527 359.776 510.313 359.776 511.22C359.776 512.393 359.529 513.3 359.036 513.94C358.542 514.567 357.782 514.88 356.756 514.88Z" fill="#090808"/>
<path d="M338.5 483.84L336.78 483.08C336.74 482.853 336.713 482.633 336.7 482.42C336.687 482.207 336.68 482 336.68 481.8C336.68 481.013 336.82 480.333 337.1 479.76C337.393 479.173 337.84 478.64 338.44 478.16L339.82 477.06C340.233 476.727 340.553 476.413 340.78 476.12C341.02 475.813 341.187 475.473 341.28 475.1C341.373 474.727 341.42 474.267 341.42 473.72C341.42 473.173 341.193 472.9 340.74 472.9C340.047 472.9 339.52 473.107 339.16 473.52C338.813 473.92 338.64 474.62 338.64 475.62L338.34 475.74L336.7 474.84C336.7 473.573 337 472.627 337.6 472C338.2 471.373 338.94 471.06 339.82 471.06C340.153 471.06 340.513 471.18 340.9 471.42C341.3 471.647 341.673 471.947 342.02 472.32C342.38 472.68 342.673 473.06 342.9 473.46C343.127 473.847 343.24 474.2 343.24 474.52C343.24 475.053 343.2 475.547 343.12 476C343.04 476.44 342.867 476.86 342.6 477.26C342.347 477.66 341.96 478.067 341.44 478.48L340.02 479.62C339.793 479.793 339.58 479.98 339.38 480.18C339.18 480.38 339.02 480.593 338.9 480.82C339.18 481.22 339.487 481.487 339.82 481.62C340.167 481.753 340.52 481.82 340.88 481.82C341.307 481.82 341.673 481.72 341.98 481.52C342.287 481.307 342.527 481.08 342.7 480.84H343.02L344.1 482.86C343.887 483.167 343.593 483.413 343.22 483.6C342.86 483.787 342.433 483.88 341.94 483.88C340.607 483.88 339.513 483.227 338.66 481.92C338.633 482 338.62 482.153 338.62 482.38C338.62 482.553 338.627 482.74 338.64 482.94C338.667 483.14 338.707 483.353 338.76 483.58L338.5 483.84ZM348.494 483.88C347.387 483.88 346.514 483.507 345.874 482.76C345.234 482 344.761 480.993 344.454 479.74L345.134 479.52C345.481 480.293 345.841 480.827 346.214 481.12C346.601 481.4 347.141 481.54 347.834 481.54C348.567 481.54 349.114 481.293 349.474 480.8C349.834 480.293 350.014 479.66 350.014 478.9C350.014 478.553 349.961 478.287 349.854 478.1C349.747 477.913 349.621 477.82 349.474 477.82C349.274 477.82 349.041 477.867 348.774 477.96C348.521 478.053 348.267 478.167 348.014 478.3C347.761 478.42 347.541 478.527 347.354 478.62C347.181 478.713 347.074 478.76 347.034 478.76C346.967 478.76 346.827 478.693 346.614 478.56C346.401 478.427 346.174 478.273 345.934 478.1C345.694 477.913 345.481 477.74 345.294 477.58C345.121 477.407 345.034 477.287 345.034 477.22C345.034 476.66 345.041 476.1 345.054 475.54C345.067 474.967 345.087 474.453 345.114 474C345.154 473.533 345.207 473.173 345.274 472.92L344.354 471.56L344.494 471.22H350.614L351.614 472.64L350.614 473.5H350.234C350.087 473.273 349.907 473.113 349.694 473.02C349.481 472.927 349.121 472.88 348.614 472.88H347.294C347.147 473.16 347.047 473.647 346.994 474.34C346.954 475.02 346.934 475.753 346.934 476.54C347.174 476.42 347.447 476.3 347.754 476.18C348.074 476.047 348.374 475.933 348.654 475.84C348.934 475.747 349.141 475.7 349.274 475.7C349.554 475.7 349.867 475.893 350.214 476.28C350.574 476.653 350.881 477.18 351.134 477.86C351.387 478.527 351.514 479.313 351.514 480.22C351.514 481.393 351.267 482.3 350.774 482.94C350.281 483.567 349.521 483.88 348.494 483.88ZM356.756 483.88C355.649 483.88 354.776 483.507 354.136 482.76C353.496 482 353.022 480.993 352.716 479.74L353.396 479.52C353.742 480.293 354.102 480.827 354.476 481.12C354.862 481.4 355.402 481.54 356.096 481.54C356.829 481.54 357.376 481.293 357.736 480.8C358.096 480.293 358.276 479.66 358.276 478.9C358.276 478.553 358.222 478.287 358.116 478.1C358.009 477.913 357.882 477.82 357.736 477.82C357.536 477.82 357.302 477.867 357.036 477.96C356.782 478.053 356.529 478.167 356.276 478.3C356.022 478.42 355.802 478.527 355.616 478.62C355.442 478.713 355.336 478.76 355.296 478.76C355.229 478.76 355.089 478.693 354.876 478.56C354.662 478.427 354.436 478.273 354.196 478.1C353.956 477.913 353.742 477.74 353.556 477.58C353.382 477.407 353.296 477.287 353.296 477.22C353.296 476.66 353.302 476.1 353.316 475.54C353.329 474.967 353.349 474.453 353.376 474C353.416 473.533 353.469 473.173 353.536 472.92L352.616 471.56L352.756 471.22H358.876L359.876 472.64L358.876 473.5H358.496C358.349 473.273 358.169 473.113 357.956 473.02C357.742 472.927 357.382 472.88 356.876 472.88H355.556C355.409 473.16 355.309 473.647 355.256 474.34C355.216 475.02 355.196 475.753 355.196 476.54C355.436 476.42 355.709 476.3 356.016 476.18C356.336 476.047 356.636 475.933 356.916 475.84C357.196 475.747 357.402 475.7 357.536 475.7C357.816 475.7 358.129 475.893 358.476 476.28C358.836 476.653 359.142 477.18 359.396 477.86C359.649 478.527 359.776 479.313 359.776 480.22C359.776 481.393 359.529 482.3 359.036 482.94C358.542 483.567 357.782 483.88 356.756 483.88Z" fill="#090808"/>
<path d="M338.5 454.84L336.78 454.08C336.74 453.853 336.713 453.633 336.7 453.42C336.687 453.207 336.68 453 336.68 452.8C336.68 452.013 336.82 451.333 337.1 450.76C337.393 450.173 337.84 449.64 338.44 449.16L339.82 448.06C340.233 447.727 340.553 447.413 340.78 447.12C341.02 446.813 341.187 446.473 341.28 446.1C341.373 445.727 341.42 445.267 341.42 444.72C341.42 444.173 341.193 443.9 340.74 443.9C340.047 443.9 339.52 444.107 339.16 444.52C338.813 444.92 338.64 445.62 338.64 446.62L338.34 446.74L336.7 445.84C336.7 444.573 337 443.627 337.6 443C338.2 442.373 338.94 442.06 339.82 442.06C340.153 442.06 340.513 442.18 340.9 442.42C341.3 442.647 341.673 442.947 342.02 443.32C342.38 443.68 342.673 444.06 342.9 444.46C343.127 444.847 343.24 445.2 343.24 445.52C343.24 446.053 343.2 446.547 343.12 447C343.04 447.44 342.867 447.86 342.6 448.26C342.347 448.66 341.96 449.067 341.44 449.48L340.02 450.62C339.793 450.793 339.58 450.98 339.38 451.18C339.18 451.38 339.02 451.593 338.9 451.82C339.18 452.22 339.487 452.487 339.82 452.62C340.167 452.753 340.52 452.82 340.88 452.82C341.307 452.82 341.673 452.72 341.98 452.52C342.287 452.307 342.527 452.08 342.7 451.84H343.02L344.1 453.86C343.887 454.167 343.593 454.413 343.22 454.6C342.86 454.787 342.433 454.88 341.94 454.88C340.607 454.88 339.513 454.227 338.66 452.92C338.633 453 338.62 453.153 338.62 453.38C338.62 453.553 338.627 453.74 338.64 453.94C338.667 454.14 338.707 454.353 338.76 454.58L338.5 454.84ZM348.494 454.88C347.387 454.88 346.514 454.507 345.874 453.76C345.234 453 344.761 451.993 344.454 450.74L345.134 450.52C345.481 451.293 345.841 451.827 346.214 452.12C346.601 452.4 347.141 452.54 347.834 452.54C348.567 452.54 349.114 452.293 349.474 451.8C349.834 451.293 350.014 450.66 350.014 449.9C350.014 449.553 349.961 449.287 349.854 449.1C349.747 448.913 349.621 448.82 349.474 448.82C349.274 448.82 349.041 448.867 348.774 448.96C348.521 449.053 348.267 449.167 348.014 449.3C347.761 449.42 347.541 449.527 347.354 449.62C347.181 449.713 347.074 449.76 347.034 449.76C346.967 449.76 346.827 449.693 346.614 449.56C346.401 449.427 346.174 449.273 345.934 449.1C345.694 448.913 345.481 448.74 345.294 448.58C345.121 448.407 345.034 448.287 345.034 448.22C345.034 447.66 345.041 447.1 345.054 446.54C345.067 445.967 345.087 445.453 345.114 445C345.154 444.533 345.207 444.173 345.274 443.92L344.354 442.56L344.494 442.22H350.614L351.614 443.64L350.614 444.5H350.234C350.087 444.273 349.907 444.113 349.694 444.02C349.481 443.927 349.121 443.88 348.614 443.88H347.294C347.147 444.16 347.047 444.647 346.994 445.34C346.954 446.02 346.934 446.753 346.934 447.54C347.174 447.42 347.447 447.3 347.754 447.18C348.074 447.047 348.374 446.933 348.654 446.84C348.934 446.747 349.141 446.7 349.274 446.7C349.554 446.7 349.867 446.893 350.214 447.28C350.574 447.653 350.881 448.18 351.134 448.86C351.387 449.527 351.514 450.313 351.514 451.22C351.514 452.393 351.267 453.3 350.774 453.94C350.281 454.567 349.521 454.88 348.494 454.88ZM356.756 454.88C355.649 454.88 354.776 454.507 354.136 453.76C353.496 453 353.022 451.993 352.716 450.74L353.396 450.52C353.742 451.293 354.102 451.827 354.476 452.12C354.862 452.4 355.402 452.54 356.096 452.54C356.829 452.54 357.376 452.293 357.736 451.8C358.096 451.293 358.276 450.66 358.276 449.9C358.276 449.553 358.222 449.287 358.116 449.1C358.009 448.913 357.882 448.82 357.736 448.82C357.536 448.82 357.302 448.867 357.036 448.96C356.782 449.053 356.529 449.167 356.276 449.3C356.022 449.42 355.802 449.527 355.616 449.62C355.442 449.713 355.336 449.76 355.296 449.76C355.229 449.76 355.089 449.693 354.876 449.56C354.662 449.427 354.436 449.273 354.196 449.1C353.956 448.913 353.742 448.74 353.556 448.58C353.382 448.407 353.296 448.287 353.296 448.22C353.296 447.66 353.302 447.1 353.316 446.54C353.329 445.967 353.349 445.453 353.376 445C353.416 444.533 353.469 444.173 353.536 443.92L352.616 442.56L352.756 442.22H358.876L359.876 443.64L358.876 444.5H358.496C358.349 444.273 358.169 444.113 357.956 444.02C357.742 443.927 357.382 443.88 356.876 443.88H355.556C355.409 444.16 355.309 444.647 355.256 445.34C355.216 446.02 355.196 446.753 355.196 447.54C355.436 447.42 355.709 447.3 356.016 447.18C356.336 447.047 356.636 446.933 356.916 446.84C357.196 446.747 357.402 446.7 357.536 446.7C357.816 446.7 358.129 446.893 358.476 447.28C358.836 447.653 359.142 448.18 359.396 448.86C359.649 449.527 359.776 450.313 359.776 451.22C359.776 452.393 359.529 453.3 359.036 453.94C358.542 454.567 357.782 454.88 356.756 454.88Z" fill="#090808"/>
<path d="M338.5 423.84L336.78 423.08C336.74 422.853 336.713 422.633 336.7 422.42C336.687 422.207 336.68 422 336.68 421.8C336.68 421.013 336.82 420.333 337.1 419.76C337.393 419.173 337.84 418.64 338.44 418.16L339.82 417.06C340.233 416.727 340.553 416.413 340.78 416.12C341.02 415.813 341.187 415.473 341.28 415.1C341.373 414.727 341.42 414.267 341.42 413.72C341.42 413.173 341.193 412.9 340.74 412.9C340.047 412.9 339.52 413.107 339.16 413.52C338.813 413.92 338.64 414.62 338.64 415.62L338.34 415.74L336.7 414.84C336.7 413.573 337 412.627 337.6 412C338.2 411.373 338.94 411.06 339.82 411.06C340.153 411.06 340.513 411.18 340.9 411.42C341.3 411.647 341.673 411.947 342.02 412.32C342.38 412.68 342.673 413.06 342.9 413.46C343.127 413.847 343.24 414.2 343.24 414.52C343.24 415.053 343.2 415.547 343.12 416C343.04 416.44 342.867 416.86 342.6 417.26C342.347 417.66 341.96 418.067 341.44 418.48L340.02 419.62C339.793 419.793 339.58 419.98 339.38 420.18C339.18 420.38 339.02 420.593 338.9 420.82C339.18 421.22 339.487 421.487 339.82 421.62C340.167 421.753 340.52 421.82 340.88 421.82C341.307 421.82 341.673 421.72 341.98 421.52C342.287 421.307 342.527 421.08 342.7 420.84H343.02L344.1 422.86C343.887 423.167 343.593 423.413 343.22 423.6C342.86 423.787 342.433 423.88 341.94 423.88C340.607 423.88 339.513 423.227 338.66 421.92C338.633 422 338.62 422.153 338.62 422.38C338.62 422.553 338.627 422.74 338.64 422.94C338.667 423.14 338.707 423.353 338.76 423.58L338.5 423.84ZM348.494 423.88C347.387 423.88 346.514 423.507 345.874 422.76C345.234 422 344.761 420.993 344.454 419.74L345.134 419.52C345.481 420.293 345.841 420.827 346.214 421.12C346.601 421.4 347.141 421.54 347.834 421.54C348.567 421.54 349.114 421.293 349.474 420.8C349.834 420.293 350.014 419.66 350.014 418.9C350.014 418.553 349.961 418.287 349.854 418.1C349.747 417.913 349.621 417.82 349.474 417.82C349.274 417.82 349.041 417.867 348.774 417.96C348.521 418.053 348.267 418.167 348.014 418.3C347.761 418.42 347.541 418.527 347.354 418.62C347.181 418.713 347.074 418.76 347.034 418.76C346.967 418.76 346.827 418.693 346.614 418.56C346.401 418.427 346.174 418.273 345.934 418.1C345.694 417.913 345.481 417.74 345.294 417.58C345.121 417.407 345.034 417.287 345.034 417.22C345.034 416.66 345.041 416.1 345.054 415.54C345.067 414.967 345.087 414.453 345.114 414C345.154 413.533 345.207 413.173 345.274 412.92L344.354 411.56L344.494 411.22H350.614L351.614 412.64L350.614 413.5H350.234C350.087 413.273 349.907 413.113 349.694 413.02C349.481 412.927 349.121 412.88 348.614 412.88H347.294C347.147 413.16 347.047 413.647 346.994 414.34C346.954 415.02 346.934 415.753 346.934 416.54C347.174 416.42 347.447 416.3 347.754 416.18C348.074 416.047 348.374 415.933 348.654 415.84C348.934 415.747 349.141 415.7 349.274 415.7C349.554 415.7 349.867 415.893 350.214 416.28C350.574 416.653 350.881 417.18 351.134 417.86C351.387 418.527 351.514 419.313 351.514 420.22C351.514 421.393 351.267 422.3 350.774 422.94C350.281 423.567 349.521 423.88 348.494 423.88ZM356.756 423.88C355.649 423.88 354.776 423.507 354.136 422.76C353.496 422 353.022 420.993 352.716 419.74L353.396 419.52C353.742 420.293 354.102 420.827 354.476 421.12C354.862 421.4 355.402 421.54 356.096 421.54C356.829 421.54 357.376 421.293 357.736 420.8C358.096 420.293 358.276 419.66 358.276 418.9C358.276 418.553 358.222 418.287 358.116 418.1C358.009 417.913 357.882 417.82 357.736 417.82C357.536 417.82 357.302 417.867 357.036 417.96C356.782 418.053 356.529 418.167 356.276 418.3C356.022 418.42 355.802 418.527 355.616 418.62C355.442 418.713 355.336 418.76 355.296 418.76C355.229 418.76 355.089 418.693 354.876 418.56C354.662 418.427 354.436 418.273 354.196 418.1C353.956 417.913 353.742 417.74 353.556 417.58C353.382 417.407 353.296 417.287 353.296 417.22C353.296 416.66 353.302 416.1 353.316 415.54C353.329 414.967 353.349 414.453 353.376 414C353.416 413.533 353.469 413.173 353.536 412.92L352.616 411.56L352.756 411.22H358.876L359.876 412.64L358.876 413.5H358.496C358.349 413.273 358.169 413.113 357.956 413.02C357.742 412.927 357.382 412.88 356.876 412.88H355.556C355.409 413.16 355.309 413.647 355.256 414.34C355.216 415.02 355.196 415.753 355.196 416.54C355.436 416.42 355.709 416.3 356.016 416.18C356.336 416.047 356.636 415.933 356.916 415.84C357.196 415.747 357.402 415.7 357.536 415.7C357.816 415.7 358.129 415.893 358.476 416.28C358.836 416.653 359.142 417.18 359.396 417.86C359.649 418.527 359.776 419.313 359.776 420.22C359.776 421.393 359.529 422.3 359.036 422.94C358.542 423.567 357.782 423.88 356.756 423.88Z" fill="#090808"/>
<path d="M338.5 392.84L336.78 392.08C336.74 391.853 336.713 391.633 336.7 391.42C336.687 391.207 336.68 391 336.68 390.8C336.68 390.013 336.82 389.333 337.1 388.76C337.393 388.173 337.84 387.64 338.44 387.16L339.82 386.06C340.233 385.727 340.553 385.413 340.78 385.12C341.02 384.813 341.187 384.473 341.28 384.1C341.373 383.727 341.42 383.267 341.42 382.72C341.42 382.173 341.193 381.9 340.74 381.9C340.047 381.9 339.52 382.107 339.16 382.52C338.813 382.92 338.64 383.62 338.64 384.62L338.34 384.74L336.7 383.84C336.7 382.573 337 381.627 337.6 381C338.2 380.373 338.94 380.06 339.82 380.06C340.153 380.06 340.513 380.18 340.9 380.42C341.3 380.647 341.673 380.947 342.02 381.32C342.38 381.68 342.673 382.06 342.9 382.46C343.127 382.847 343.24 383.2 343.24 383.52C343.24 384.053 343.2 384.547 343.12 385C343.04 385.44 342.867 385.86 342.6 386.26C342.347 386.66 341.96 387.067 341.44 387.48L340.02 388.62C339.793 388.793 339.58 388.98 339.38 389.18C339.18 389.38 339.02 389.593 338.9 389.82C339.18 390.22 339.487 390.487 339.82 390.62C340.167 390.753 340.52 390.82 340.88 390.82C341.307 390.82 341.673 390.72 341.98 390.52C342.287 390.307 342.527 390.08 342.7 389.84H343.02L344.1 391.86C343.887 392.167 343.593 392.413 343.22 392.6C342.86 392.787 342.433 392.88 341.94 392.88C340.607 392.88 339.513 392.227 338.66 390.92C338.633 391 338.62 391.153 338.62 391.38C338.62 391.553 338.627 391.74 338.64 391.94C338.667 392.14 338.707 392.353 338.76 392.58L338.5 392.84ZM348.494 392.88C347.387 392.88 346.514 392.507 345.874 391.76C345.234 391 344.761 389.993 344.454 388.74L345.134 388.52C345.481 389.293 345.841 389.827 346.214 390.12C346.601 390.4 347.141 390.54 347.834 390.54C348.567 390.54 349.114 390.293 349.474 389.8C349.834 389.293 350.014 388.66 350.014 387.9C350.014 387.553 349.961 387.287 349.854 387.1C349.747 386.913 349.621 386.82 349.474 386.82C349.274 386.82 349.041 386.867 348.774 386.96C348.521 387.053 348.267 387.167 348.014 387.3C347.761 387.42 347.541 387.527 347.354 387.62C347.181 387.713 347.074 387.76 347.034 387.76C346.967 387.76 346.827 387.693 346.614 387.56C346.401 387.427 346.174 387.273 345.934 387.1C345.694 386.913 345.481 386.74 345.294 386.58C345.121 386.407 345.034 386.287 345.034 386.22C345.034 385.66 345.041 385.1 345.054 384.54C345.067 383.967 345.087 383.453 345.114 383C345.154 382.533 345.207 382.173 345.274 381.92L344.354 380.56L344.494 380.22H350.614L351.614 381.64L350.614 382.5H350.234C350.087 382.273 349.907 382.113 349.694 382.02C349.481 381.927 349.121 381.88 348.614 381.88H347.294C347.147 382.16 347.047 382.647 346.994 383.34C346.954 384.02 346.934 384.753 346.934 385.54C347.174 385.42 347.447 385.3 347.754 385.18C348.074 385.047 348.374 384.933 348.654 384.84C348.934 384.747 349.141 384.7 349.274 384.7C349.554 384.7 349.867 384.893 350.214 385.28C350.574 385.653 350.881 386.18 351.134 386.86C351.387 387.527 351.514 388.313 351.514 389.22C351.514 390.393 351.267 391.3 350.774 391.94C350.281 392.567 349.521 392.88 348.494 392.88ZM356.756 392.88C355.649 392.88 354.776 392.507 354.136 391.76C353.496 391 353.022 389.993 352.716 388.74L353.396 388.52C353.742 389.293 354.102 389.827 354.476 390.12C354.862 390.4 355.402 390.54 356.096 390.54C356.829 390.54 357.376 390.293 357.736 389.8C358.096 389.293 358.276 388.66 358.276 387.9C358.276 387.553 358.222 387.287 358.116 387.1C358.009 386.913 357.882 386.82 357.736 386.82C357.536 386.82 357.302 386.867 357.036 386.96C356.782 387.053 356.529 387.167 356.276 387.3C356.022 387.42 355.802 387.527 355.616 387.62C355.442 387.713 355.336 387.76 355.296 387.76C355.229 387.76 355.089 387.693 354.876 387.56C354.662 387.427 354.436 387.273 354.196 387.1C353.956 386.913 353.742 386.74 353.556 386.58C353.382 386.407 353.296 386.287 353.296 386.22C353.296 385.66 353.302 385.1 353.316 384.54C353.329 383.967 353.349 383.453 353.376 383C353.416 382.533 353.469 382.173 353.536 381.92L352.616 380.56L352.756 380.22H358.876L359.876 381.64L358.876 382.5H358.496C358.349 382.273 358.169 382.113 357.956 382.02C357.742 381.927 357.382 381.88 356.876 381.88H355.556C355.409 382.16 355.309 382.647 355.256 383.34C355.216 384.02 355.196 384.753 355.196 385.54C355.436 385.42 355.709 385.3 356.016 385.18C356.336 385.047 356.636 384.933 356.916 384.84C357.196 384.747 357.402 384.7 357.536 384.7C357.816 384.7 358.129 384.893 358.476 385.28C358.836 385.653 359.142 386.18 359.396 386.86C359.649 387.527 359.776 388.313 359.776 389.22C359.776 390.393 359.529 391.3 359.036 391.94C358.542 392.567 357.782 392.88 356.756 392.88Z" fill="#090808"/>
</g>
<defs>
<clipPath id="clip0_48_54">
<path d="M0 337C0 320.431 13.4315 307 30 307H350C366.569 307 380 320.431 380 337V643C380 654.046 371.046 663 360 663H20C8.9543 663 0 654.046 0 643V337Z" fill="white"/>
</clipPath>
</defs>
</svg>
